<?xml version="1.0" standalone="no"?>
<!DOCTYPE svg PUBLIC "-//W3C//DTD SVG 20010904//EN"
 "http://www.w3.org/TR/2001/REC-SVG-20010904/DTD/svg10.dtd">
<svg version="1.0" xmlns="http://www.w3.org/2000/svg"
 width="192.000000pt" height="192.000000pt" viewBox="0 0 192.000000 192.000000"
 preserveAspectRatio="xMidYMid meet">

<g transform="translate(0.000000,192.000000) scale(0.100000,-0.100000)"
fill="#000000" stroke="none">
<path d="M0 960 l0 -960 960 0 960 0 0 960 0 960 -960 0 -960 0 0 -960z m1096
753 c66 -36 138 -75 162 -85 l42 -19 0 -77 1 -77 156 -85 c87 -47 168 -95 180
-107 22 -21 23 -29 23 -181 l0 -159 68 -34 c37 -18 69 -34 71 -36 2 -1 3 -82
2 -180 -1 -164 -3 -179 -21 -195 -27 -22 -294 -168 -308 -168 -6 0 -26 9 -46
20 l-34 21 -208 -116 c-114 -63 -210 -115 -214 -115 -4 0 -101 52 -215 115
l-207 116 -35 -21 c-19 -11 -40 -20 -46 -20 -13 0 -287 149 -312 170 -12 10
-15 44 -15 185 0 194 -5 180 87 231 l53 29 0 158 c0 151 1 159 23 180 12 12
93 60 180 107 l156 85 1 55 c1 93 -1 91 163 183 84 47 157 85 163 86 7 1 65
-29 130 -66z"/>
<path d="M862 1641 l-103 -59 63 -35 c35 -19 82 -44 106 -56 l42 -21 43 21
c23 12 70 37 105 56 l63 35 -106 59 c-58 33 -107 59 -108 58 -1 0 -48 -27
-105 -58z"/>
<path d="M722 1400 l3 -121 103 -56 102 -55 0 119 0 118 -53 29 c-28 16 -76
42 -105 58 l-53 30 3 -122z"/>
<path d="M1113 1463 l-103 -56 0 -120 c0 -65 3 -117 8 -115 4 2 51 27 105 56
l97 53 0 120 c0 65 -1 119 -2 118 -2 0 -49 -25 -105 -56z"/>
<path d="M498 1294 l-138 -76 0 -125 0 -125 44 26 c25 14 52 26 61 26 9 0 63
-26 119 -57 55 -31 125 -69 155 -84 l54 -28 -2 -178 c-2 -104 -7 -183 -13
-190 -6 -7 -41 -30 -79 -50 -38 -20 -66 -40 -61 -44 4 -4 80 -49 169 -98 l163
-91 161 90 c89 50 165 90 170 90 23 0 3 19 -53 49 -105 57 -98 40 -98 242 l0
177 154 86 c85 47 162 86 171 86 9 0 36 -12 61 -26 l44 -26 0 125 0 125 -137
76 -138 75 -5 -57 c-3 -31 -8 -62 -13 -69 -4 -6 -77 -50 -162 -98 l-155 -86
-155 86 c-85 48 -158 92 -162 98 -5 7 -10 38 -13 69 l-5 57 -137 -75z"/>
<path d="M357 884 c-55 -31 -95 -60 -90 -64 4 -4 51 -30 103 -58 l96 -51 104
56 c95 52 102 57 84 70 -29 21 -181 103 -191 103 -4 -1 -52 -26 -106 -56z"/>
<path d="M1375 889 c-49 -28 -94 -54 -98 -59 -5 -4 38 -33 94 -63 l104 -56 95
51 c52 28 99 54 103 58 8 7 -181 120 -199 120 -5 0 -49 -23 -99 -51z"/>
<path d="M220 642 l0 -118 38 -21 c20 -11 68 -37 105 -58 l68 -37 -3 121 -3
122 -102 55 -103 55 0 -119z"/>
<path d="M603 703 l-103 -56 0 -119 0 -119 98 52 c53 29 103 56 110 62 13 10
18 237 5 237 -5 -1 -54 -26 -110 -57z"/>
<path d="M1220 645 l0 -114 68 -39 c37 -22 86 -49 110 -61 l42 -21 0 119 0
119 -105 56 c-57 31 -107 56 -110 56 -3 0 -5 -52 -5 -115z"/>
<path d="M1613 704 l-103 -56 0 -120 0 -119 78 42 c42 24 89 50 104 58 l28 16
0 118 c0 64 -1 117 -2 117 -2 0 -49 -26 -105 -56z"/>
</g>
</svg>
